# Blender v2.92.0 OBJ File: 'TransformerBoxVertical.blend'
# www.blender.org
mtllib TransformerBoxVertical.mtl
o pCube1_Mesh
v -0.492774 0.000015 0.134070
v 0.492710 0.000015 0.134070
v -0.492774 1.596165 0.134070
v 0.492710 1.596165 0.134070
v -0.492774 1.596165 -0.153293
v 0.492710 1.596165 -0.153293
v -0.492774 0.000015 -0.153293
v 0.492710 0.000015 -0.153293
v -0.492774 0.089988 0.134070
v 0.492710 0.089573 0.134070
v -0.492774 0.089988 0.153330
v 0.492710 0.089573 0.153330
v 0.492710 1.596165 0.153330
v -0.492774 1.596165 0.153330
v 0.492710 0.090360 -0.153293
v -0.492774 0.088850 -0.153293
vt 0.566463 0.111542
vt 0.566464 0.714088
vt 0.172221 0.111543
vt 0.172222 0.714088
vt 0.070190 0.810126
vt 0.464743 0.810126
vt 0.070190 0.924578
vt 0.464743 0.924578
vt 0.592760 0.111045
vt 0.592760 0.074903
vt 0.989032 0.111045
vt 0.989032 0.074903
vt 0.070190 0.810127
vt 0.464743 0.810126
vt 0.070190 0.924578
vt 0.464743 0.924578
vt 0.021462 0.111279
vt 0.136422 0.111594
vt 0.021462 0.713991
vt 0.136422 0.713991
vt 0.136164 0.075451
vt 0.021548 0.075451
vt 0.136164 0.110990
vt 0.021548 0.111445
vt 0.172221 0.075860
vt 0.566464 0.075862
vt 0.172221 0.111853
vt 0.566463 0.111854
vt 0.013757 0.111279
vt 0.013757 0.713991
vt 0.464743 0.801914
vt 0.070190 0.801914
vt 0.021548 0.713991
vt 0.013866 0.713991
vt 0.013866 0.111445
vt 0.021462 0.075451
vt 0.136422 0.075451
vt 0.136164 0.713991
vt 0.989032 0.713440
vt 0.592760 0.713440
vn 0.0000 -0.0000 1.0000
vn 0.0000 1.0000 0.0000
vn 0.0000 0.0000 -1.0000
vn 0.0000 -1.0000 -0.0000
vn 1.0000 0.0000 0.0000
vn -1.0000 0.0000 0.0000
vn -0.0004 -1.0000 0.0000
usemtl TransformerBoxVert_dif
s off
f 12/1/1 13/2/1 11/3/1
f 11/3/1 13/2/1 14/4/1
f 3/5/2 4/6/2 5/7/2
f 4/6/2 6/8/2 5/7/2
f 15/9/3 8/10/3 16/11/3
f 16/11/3 8/10/3 7/12/3
f 7/13/4 8/14/4 1/15/4
f 8/14/4 2/16/4 1/15/4
f 10/17/5 15/18/5 4/19/5
f 15/18/5 6/20/5 4/19/5
f 7/21/6 1/22/6 16/23/6
f 1/22/6 9/24/6 16/23/6
f 1/25/1 2/26/1 9/27/1
f 2/26/1 10/28/1 9/27/1
f 9/27/7 10/28/7 11/3/7
f 10/28/7 12/1/7 11/3/7
f 10/17/5 4/19/5 12/29/5
f 4/19/5 13/30/5 12/29/5
f 4/6/2 3/5/2 13/31/2
f 3/5/2 14/32/2 13/31/2
f 3/33/6 9/24/6 14/34/6
f 9/24/6 11/35/6 14/34/6
f 2/36/5 8/37/5 10/17/5
f 8/37/5 15/18/5 10/17/5
f 16/23/6 9/24/6 5/38/6
f 9/24/6 3/33/6 5/38/6
f 5/39/3 6/40/3 16/11/3
f 6/40/3 15/9/3 16/11/3
